<mxfile host="Electron" modified="2025-03-09T18:00:53.730Z" agent="Mozilla/5.0 (Windows NT 10.0; Win64; x64) AppleWebKit/537.36 (KHTML, like Gecko) draw.io/24.6.4 Chrome/124.0.6367.207 Electron/30.0.6 Safari/537.36" etag="0Kdhy8Z4AmEN74AkxPCh" version="24.6.4" type="device">
  <diagram name="Page-1" id="fz8OJ0utpPjESha9in2E">
    <mxGraphModel dx="1291" dy="747" grid="1" gridSize="10" guides="1" tooltips="1" connect="1" arrows="1" fold="1" page="1" pageScale="1" pageWidth="827" pageHeight="1169" math="0" shadow="0">
      <root>
        <mxCell id="0" />
        <mxCell id="1" parent="0" />
        <mxCell id="dxoBrdhW6s3K3j8bMvt5-7" style="edgeStyle=orthogonalEdgeStyle;rounded=0;orthogonalLoop=1;jettySize=auto;html=1;entryX=0.5;entryY=1;entryDx=0;entryDy=0;" edge="1" parent="1" source="dxoBrdhW6s3K3j8bMvt5-1" target="dxoBrdhW6s3K3j8bMvt5-2">
          <mxGeometry relative="1" as="geometry">
            <Array as="points">
              <mxPoint x="405" y="480" />
              <mxPoint x="130" y="480" />
            </Array>
          </mxGeometry>
        </mxCell>
        <mxCell id="dxoBrdhW6s3K3j8bMvt5-8" value="Informasi Pengguna&lt;br&gt;Informasi Hewan&lt;br&gt;Informasi Adopsi&lt;br&gt;Informasi Donasi" style="edgeLabel;html=1;align=left;verticalAlign=middle;resizable=0;points=[];" vertex="1" connectable="0" parent="dxoBrdhW6s3K3j8bMvt5-7">
          <mxGeometry x="-0.0637" y="1" relative="1" as="geometry">
            <mxPoint x="-42" as="offset" />
          </mxGeometry>
        </mxCell>
        <mxCell id="dxoBrdhW6s3K3j8bMvt5-11" style="edgeStyle=orthogonalEdgeStyle;rounded=0;orthogonalLoop=1;jettySize=auto;html=1;entryX=0.5;entryY=0;entryDx=0;entryDy=0;" edge="1" parent="1" source="dxoBrdhW6s3K3j8bMvt5-1" target="dxoBrdhW6s3K3j8bMvt5-3">
          <mxGeometry relative="1" as="geometry">
            <Array as="points">
              <mxPoint x="405" y="230" />
              <mxPoint x="690" y="230" />
            </Array>
          </mxGeometry>
        </mxCell>
        <mxCell id="dxoBrdhW6s3K3j8bMvt5-12" value="Informasi Donasi&lt;br&gt;Informasi Pengguna&lt;br&gt;Informasi Hewan&lt;br&gt;&lt;div style=&quot;&quot;&gt;Informasi Adopsi&lt;/div&gt;" style="edgeLabel;html=1;align=left;verticalAlign=middle;resizable=0;points=[];" vertex="1" connectable="0" parent="dxoBrdhW6s3K3j8bMvt5-11">
          <mxGeometry x="-0.26" y="2" relative="1" as="geometry">
            <mxPoint as="offset" />
          </mxGeometry>
        </mxCell>
        <mxCell id="dxoBrdhW6s3K3j8bMvt5-1" value="SISTEM&lt;div&gt;ADOPSI&lt;/div&gt;" style="ellipse;whiteSpace=wrap;html=1;aspect=fixed;" vertex="1" parent="1">
          <mxGeometry x="320" y="280" width="170" height="170" as="geometry" />
        </mxCell>
        <mxCell id="dxoBrdhW6s3K3j8bMvt5-5" style="edgeStyle=orthogonalEdgeStyle;rounded=0;orthogonalLoop=1;jettySize=auto;html=1;entryX=0;entryY=0.5;entryDx=0;entryDy=0;" edge="1" parent="1" source="dxoBrdhW6s3K3j8bMvt5-2" target="dxoBrdhW6s3K3j8bMvt5-1">
          <mxGeometry relative="1" as="geometry" />
        </mxCell>
        <mxCell id="dxoBrdhW6s3K3j8bMvt5-6" value="Data Pengguna&lt;br&gt;Data Donasi" style="edgeLabel;html=1;align=left;verticalAlign=middle;resizable=0;points=[];" vertex="1" connectable="0" parent="dxoBrdhW6s3K3j8bMvt5-5">
          <mxGeometry x="-0.2264" y="1" relative="1" as="geometry">
            <mxPoint x="-20" y="1" as="offset" />
          </mxGeometry>
        </mxCell>
        <mxCell id="dxoBrdhW6s3K3j8bMvt5-2" value="Pengguna" style="rounded=0;whiteSpace=wrap;html=1;" vertex="1" parent="1">
          <mxGeometry x="70" y="335" width="120" height="60" as="geometry" />
        </mxCell>
        <mxCell id="dxoBrdhW6s3K3j8bMvt5-9" style="edgeStyle=orthogonalEdgeStyle;rounded=0;orthogonalLoop=1;jettySize=auto;html=1;entryX=1;entryY=0.5;entryDx=0;entryDy=0;exitX=0;exitY=0.5;exitDx=0;exitDy=0;" edge="1" parent="1" source="dxoBrdhW6s3K3j8bMvt5-3" target="dxoBrdhW6s3K3j8bMvt5-1">
          <mxGeometry relative="1" as="geometry">
            <mxPoint x="630" y="364" as="sourcePoint" />
            <mxPoint x="490.00000000000045" y="365" as="targetPoint" />
          </mxGeometry>
        </mxCell>
        <mxCell id="dxoBrdhW6s3K3j8bMvt5-10" value="Data Hewan&lt;br&gt;Data Adopsi&lt;br&gt;Data Pengguna" style="edgeLabel;html=1;align=left;verticalAlign=middle;resizable=0;points=[];" vertex="1" connectable="0" parent="dxoBrdhW6s3K3j8bMvt5-9">
          <mxGeometry x="0.124" relative="1" as="geometry">
            <mxPoint x="-22" as="offset" />
          </mxGeometry>
        </mxCell>
        <mxCell id="dxoBrdhW6s3K3j8bMvt5-3" value="Admin" style="rounded=0;whiteSpace=wrap;html=1;" vertex="1" parent="1">
          <mxGeometry x="630" y="336" width="120" height="60" as="geometry" />
        </mxCell>
        <mxCell id="dxoBrdhW6s3K3j8bMvt5-13" value="&lt;div&gt;0&lt;/div&gt;SISTEM&lt;div&gt;ADOPSI&lt;/div&gt;" style="ellipse;whiteSpace=wrap;html=1;aspect=fixed;" vertex="1" parent="1">
          <mxGeometry x="357.5" y="610" width="95" height="95" as="geometry" />
        </mxCell>
        <mxCell id="dxoBrdhW6s3K3j8bMvt5-14" value="&lt;div&gt;1&lt;br&gt;Login&lt;/div&gt;" style="ellipse;whiteSpace=wrap;html=1;aspect=fixed;" vertex="1" parent="1">
          <mxGeometry x="170" y="760" width="75" height="75" as="geometry" />
        </mxCell>
        <mxCell id="dxoBrdhW6s3K3j8bMvt5-15" value="&lt;div&gt;2&lt;br&gt;Kelola Hewan&lt;/div&gt;" style="ellipse;whiteSpace=wrap;html=1;aspect=fixed;" vertex="1" parent="1">
          <mxGeometry x="300" y="760" width="75" height="75" as="geometry" />
        </mxCell>
        <mxCell id="dxoBrdhW6s3K3j8bMvt5-16" value="&lt;div&gt;3&lt;br&gt;Adopsi&lt;/div&gt;" style="ellipse;whiteSpace=wrap;html=1;aspect=fixed;" vertex="1" parent="1">
          <mxGeometry x="430" y="760" width="75" height="75" as="geometry" />
        </mxCell>
        <mxCell id="dxoBrdhW6s3K3j8bMvt5-17" value="&lt;div&gt;4&lt;br&gt;Donasi&lt;/div&gt;" style="ellipse;whiteSpace=wrap;html=1;aspect=fixed;" vertex="1" parent="1">
          <mxGeometry x="560" y="760" width="75" height="75" as="geometry" />
        </mxCell>
        <mxCell id="dxoBrdhW6s3K3j8bMvt5-18" value="" style="endArrow=none;html=1;rounded=0;entryX=0.5;entryY=1;entryDx=0;entryDy=0;exitX=0.5;exitY=0;exitDx=0;exitDy=0;edgeStyle=orthogonalEdgeStyle;" edge="1" parent="1" source="dxoBrdhW6s3K3j8bMvt5-14" target="dxoBrdhW6s3K3j8bMvt5-13">
          <mxGeometry width="50" height="50" relative="1" as="geometry">
            <mxPoint x="200" y="750" as="sourcePoint" />
            <mxPoint x="250" y="700" as="targetPoint" />
          </mxGeometry>
        </mxCell>
        <mxCell id="dxoBrdhW6s3K3j8bMvt5-19" value="" style="endArrow=none;html=1;rounded=0;entryX=0.5;entryY=1;entryDx=0;entryDy=0;exitX=0.5;exitY=0;exitDx=0;exitDy=0;edgeStyle=orthogonalEdgeStyle;" edge="1" parent="1" source="dxoBrdhW6s3K3j8bMvt5-15" target="dxoBrdhW6s3K3j8bMvt5-13">
          <mxGeometry width="50" height="50" relative="1" as="geometry">
            <mxPoint x="380" y="810" as="sourcePoint" />
            <mxPoint x="430" y="760" as="targetPoint" />
          </mxGeometry>
        </mxCell>
        <mxCell id="dxoBrdhW6s3K3j8bMvt5-20" value="" style="endArrow=none;html=1;rounded=0;exitX=0.5;exitY=0;exitDx=0;exitDy=0;edgeStyle=orthogonalEdgeStyle;entryX=0.5;entryY=1;entryDx=0;entryDy=0;" edge="1" parent="1" source="dxoBrdhW6s3K3j8bMvt5-16" target="dxoBrdhW6s3K3j8bMvt5-13">
          <mxGeometry width="50" height="50" relative="1" as="geometry">
            <mxPoint x="348" y="770" as="sourcePoint" />
            <mxPoint x="410" y="710" as="targetPoint" />
          </mxGeometry>
        </mxCell>
        <mxCell id="dxoBrdhW6s3K3j8bMvt5-21" value="" style="endArrow=none;html=1;rounded=0;exitX=0.5;exitY=0;exitDx=0;exitDy=0;edgeStyle=orthogonalEdgeStyle;entryX=0.5;entryY=1;entryDx=0;entryDy=0;" edge="1" parent="1" source="dxoBrdhW6s3K3j8bMvt5-17" target="dxoBrdhW6s3K3j8bMvt5-13">
          <mxGeometry width="50" height="50" relative="1" as="geometry">
            <mxPoint x="478" y="770" as="sourcePoint" />
            <mxPoint x="415" y="715" as="targetPoint" />
          </mxGeometry>
        </mxCell>
        <mxCell id="dxoBrdhW6s3K3j8bMvt5-47" style="edgeStyle=orthogonalEdgeStyle;rounded=0;orthogonalLoop=1;jettySize=auto;html=1;entryX=0.5;entryY=0;entryDx=0;entryDy=0;" edge="1" parent="1" source="dxoBrdhW6s3K3j8bMvt5-30" target="dxoBrdhW6s3K3j8bMvt5-36">
          <mxGeometry relative="1" as="geometry" />
        </mxCell>
        <mxCell id="dxoBrdhW6s3K3j8bMvt5-48" value="Data Pengguna" style="edgeLabel;html=1;align=left;verticalAlign=middle;resizable=0;points=[];" vertex="1" connectable="0" parent="dxoBrdhW6s3K3j8bMvt5-47">
          <mxGeometry x="-0.5246" y="3" relative="1" as="geometry">
            <mxPoint x="-19" y="3" as="offset" />
          </mxGeometry>
        </mxCell>
        <mxCell id="dxoBrdhW6s3K3j8bMvt5-71" style="edgeStyle=orthogonalEdgeStyle;rounded=0;orthogonalLoop=1;jettySize=auto;html=1;entryX=0.75;entryY=0;entryDx=0;entryDy=0;" edge="1" parent="1" source="dxoBrdhW6s3K3j8bMvt5-30" target="dxoBrdhW6s3K3j8bMvt5-34">
          <mxGeometry relative="1" as="geometry">
            <Array as="points">
              <mxPoint x="238" y="1180" />
            </Array>
          </mxGeometry>
        </mxCell>
        <mxCell id="dxoBrdhW6s3K3j8bMvt5-72" value="Informasi Pengguna" style="edgeLabel;html=1;align=left;verticalAlign=middle;resizable=0;points=[];" vertex="1" connectable="0" parent="dxoBrdhW6s3K3j8bMvt5-71">
          <mxGeometry x="-0.119" y="1" relative="1" as="geometry">
            <mxPoint x="-10" as="offset" />
          </mxGeometry>
        </mxCell>
        <mxCell id="dxoBrdhW6s3K3j8bMvt5-73" style="edgeStyle=orthogonalEdgeStyle;rounded=0;orthogonalLoop=1;jettySize=auto;html=1;entryX=0;entryY=0.75;entryDx=0;entryDy=0;" edge="1" parent="1" source="dxoBrdhW6s3K3j8bMvt5-30" target="dxoBrdhW6s3K3j8bMvt5-35">
          <mxGeometry relative="1" as="geometry">
            <Array as="points">
              <mxPoint x="413" y="1100" />
              <mxPoint x="100" y="1100" />
              <mxPoint x="100" y="1495" />
            </Array>
          </mxGeometry>
        </mxCell>
        <mxCell id="dxoBrdhW6s3K3j8bMvt5-74" value="Informasi Pengguna" style="edgeLabel;html=1;align=left;verticalAlign=middle;resizable=0;points=[];" vertex="1" connectable="0" parent="dxoBrdhW6s3K3j8bMvt5-73">
          <mxGeometry x="-0.6148" y="4" relative="1" as="geometry">
            <mxPoint x="-13" as="offset" />
          </mxGeometry>
        </mxCell>
        <mxCell id="dxoBrdhW6s3K3j8bMvt5-30" value="&lt;div&gt;1&lt;br&gt;Login&lt;/div&gt;" style="ellipse;whiteSpace=wrap;html=1;aspect=fixed;" vertex="1" parent="1">
          <mxGeometry x="375" y="1120" width="75" height="75" as="geometry" />
        </mxCell>
        <mxCell id="dxoBrdhW6s3K3j8bMvt5-52" style="edgeStyle=orthogonalEdgeStyle;rounded=0;orthogonalLoop=1;jettySize=auto;html=1;entryX=0.25;entryY=0;entryDx=0;entryDy=0;" edge="1" parent="1" source="dxoBrdhW6s3K3j8bMvt5-31" target="dxoBrdhW6s3K3j8bMvt5-37">
          <mxGeometry relative="1" as="geometry">
            <Array as="points">
              <mxPoint x="595" y="1298" />
            </Array>
          </mxGeometry>
        </mxCell>
        <mxCell id="dxoBrdhW6s3K3j8bMvt5-53" value="Data Hewan" style="edgeLabel;html=1;align=left;verticalAlign=middle;resizable=0;points=[];" vertex="1" connectable="0" parent="dxoBrdhW6s3K3j8bMvt5-52">
          <mxGeometry x="-0.1105" y="-1" relative="1" as="geometry">
            <mxPoint x="-91" as="offset" />
          </mxGeometry>
        </mxCell>
        <mxCell id="dxoBrdhW6s3K3j8bMvt5-77" style="edgeStyle=orthogonalEdgeStyle;rounded=0;orthogonalLoop=1;jettySize=auto;html=1;" edge="1" parent="1" source="dxoBrdhW6s3K3j8bMvt5-31" target="dxoBrdhW6s3K3j8bMvt5-34">
          <mxGeometry relative="1" as="geometry">
            <Array as="points">
              <mxPoint x="330" y="1280" />
              <mxPoint x="330" y="1280" />
            </Array>
          </mxGeometry>
        </mxCell>
        <mxCell id="dxoBrdhW6s3K3j8bMvt5-78" value="Informasi Hewan" style="edgeLabel;html=1;align=left;verticalAlign=middle;resizable=0;points=[];" vertex="1" connectable="0" parent="dxoBrdhW6s3K3j8bMvt5-77">
          <mxGeometry x="0.2365" y="-1" relative="1" as="geometry">
            <mxPoint x="-24" as="offset" />
          </mxGeometry>
        </mxCell>
        <mxCell id="dxoBrdhW6s3K3j8bMvt5-31" value="&lt;div&gt;2&lt;br&gt;Kelola Hewan&lt;/div&gt;" style="ellipse;whiteSpace=wrap;html=1;aspect=fixed;" vertex="1" parent="1">
          <mxGeometry x="375" y="1260" width="75" height="75" as="geometry" />
        </mxCell>
        <mxCell id="dxoBrdhW6s3K3j8bMvt5-51" value="Informasi Adopsi" style="edgeStyle=orthogonalEdgeStyle;rounded=0;orthogonalLoop=1;jettySize=auto;html=1;entryX=0.5;entryY=1;entryDx=0;entryDy=0;align=left;jumpStyle=arc;" edge="1" parent="1" source="dxoBrdhW6s3K3j8bMvt5-32" target="dxoBrdhW6s3K3j8bMvt5-34">
          <mxGeometry relative="1" as="geometry">
            <Array as="points">
              <mxPoint x="208" y="1430" />
            </Array>
          </mxGeometry>
        </mxCell>
        <mxCell id="dxoBrdhW6s3K3j8bMvt5-56" style="edgeStyle=orthogonalEdgeStyle;rounded=0;orthogonalLoop=1;jettySize=auto;html=1;entryX=1;entryY=0.5;entryDx=0;entryDy=0;" edge="1" parent="1" source="dxoBrdhW6s3K3j8bMvt5-32" target="dxoBrdhW6s3K3j8bMvt5-35">
          <mxGeometry relative="1" as="geometry">
            <Array as="points">
              <mxPoint x="350" y="1480" />
              <mxPoint x="350" y="1480" />
            </Array>
          </mxGeometry>
        </mxCell>
        <mxCell id="dxoBrdhW6s3K3j8bMvt5-57" value="Informasi Adopsi" style="edgeLabel;html=1;align=left;verticalAlign=middle;resizable=0;points=[];" vertex="1" connectable="0" parent="dxoBrdhW6s3K3j8bMvt5-56">
          <mxGeometry x="0.2302" relative="1" as="geometry">
            <mxPoint x="-23" as="offset" />
          </mxGeometry>
        </mxCell>
        <mxCell id="dxoBrdhW6s3K3j8bMvt5-67" style="edgeStyle=orthogonalEdgeStyle;rounded=0;orthogonalLoop=1;jettySize=auto;html=1;entryX=0.5;entryY=0;entryDx=0;entryDy=0;" edge="1" parent="1" source="dxoBrdhW6s3K3j8bMvt5-32" target="dxoBrdhW6s3K3j8bMvt5-38">
          <mxGeometry relative="1" as="geometry">
            <Array as="points">
              <mxPoint x="620" y="1450" />
            </Array>
          </mxGeometry>
        </mxCell>
        <mxCell id="dxoBrdhW6s3K3j8bMvt5-68" value="Data Adopsi" style="edgeLabel;html=1;align=left;verticalAlign=middle;resizable=0;points=[];" vertex="1" connectable="0" parent="dxoBrdhW6s3K3j8bMvt5-67">
          <mxGeometry x="-0.4964" relative="1" as="geometry">
            <mxPoint x="-24" as="offset" />
          </mxGeometry>
        </mxCell>
        <mxCell id="dxoBrdhW6s3K3j8bMvt5-32" value="&lt;div&gt;3&lt;br&gt;Adopsi&lt;/div&gt;" style="ellipse;whiteSpace=wrap;html=1;aspect=fixed;" vertex="1" parent="1">
          <mxGeometry x="377.5" y="1420" width="75" height="75" as="geometry" />
        </mxCell>
        <mxCell id="dxoBrdhW6s3K3j8bMvt5-58" style="edgeStyle=orthogonalEdgeStyle;rounded=0;orthogonalLoop=1;jettySize=auto;html=1;entryX=0.25;entryY=1;entryDx=0;entryDy=0;" edge="1" parent="1" source="dxoBrdhW6s3K3j8bMvt5-33" target="dxoBrdhW6s3K3j8bMvt5-35">
          <mxGeometry relative="1" as="geometry">
            <Array as="points">
              <mxPoint x="178" y="1600" />
            </Array>
          </mxGeometry>
        </mxCell>
        <mxCell id="dxoBrdhW6s3K3j8bMvt5-59" value="Informasi Donasi" style="edgeLabel;html=1;align=left;verticalAlign=middle;resizable=0;points=[];" vertex="1" connectable="0" parent="dxoBrdhW6s3K3j8bMvt5-58">
          <mxGeometry x="-0.1602" y="1" relative="1" as="geometry">
            <mxPoint as="offset" />
          </mxGeometry>
        </mxCell>
        <mxCell id="dxoBrdhW6s3K3j8bMvt5-63" style="edgeStyle=orthogonalEdgeStyle;rounded=0;orthogonalLoop=1;jettySize=auto;html=1;entryX=0;entryY=0.5;entryDx=0;entryDy=0;" edge="1" parent="1" source="dxoBrdhW6s3K3j8bMvt5-33" target="dxoBrdhW6s3K3j8bMvt5-61">
          <mxGeometry relative="1" as="geometry">
            <mxPoint x="480" y="1577.5" as="targetPoint" />
          </mxGeometry>
        </mxCell>
        <mxCell id="dxoBrdhW6s3K3j8bMvt5-64" value="Data Donasi" style="edgeLabel;html=1;align=left;verticalAlign=middle;resizable=0;points=[];" vertex="1" connectable="0" parent="dxoBrdhW6s3K3j8bMvt5-63">
          <mxGeometry x="-0.2697" y="2" relative="1" as="geometry">
            <mxPoint x="-14" as="offset" />
          </mxGeometry>
        </mxCell>
        <mxCell id="dxoBrdhW6s3K3j8bMvt5-33" value="&lt;div&gt;4&lt;br&gt;Donasi&lt;/div&gt;" style="ellipse;whiteSpace=wrap;html=1;aspect=fixed;" vertex="1" parent="1">
          <mxGeometry x="375" y="1540" width="75" height="75" as="geometry" />
        </mxCell>
        <mxCell id="dxoBrdhW6s3K3j8bMvt5-39" style="edgeStyle=orthogonalEdgeStyle;rounded=0;orthogonalLoop=1;jettySize=auto;html=1;entryX=0;entryY=0.5;entryDx=0;entryDy=0;" edge="1" parent="1" source="dxoBrdhW6s3K3j8bMvt5-34" target="dxoBrdhW6s3K3j8bMvt5-30">
          <mxGeometry relative="1" as="geometry">
            <Array as="points">
              <mxPoint x="210" y="1158" />
            </Array>
          </mxGeometry>
        </mxCell>
        <mxCell id="dxoBrdhW6s3K3j8bMvt5-40" value="Data Pengguna" style="edgeLabel;html=1;align=left;verticalAlign=middle;resizable=0;points=[];" vertex="1" connectable="0" parent="dxoBrdhW6s3K3j8bMvt5-39">
          <mxGeometry x="0.243" relative="1" as="geometry">
            <mxPoint x="-2" as="offset" />
          </mxGeometry>
        </mxCell>
        <mxCell id="dxoBrdhW6s3K3j8bMvt5-41" style="edgeStyle=orthogonalEdgeStyle;rounded=0;orthogonalLoop=1;jettySize=auto;html=1;entryX=0;entryY=0.5;entryDx=0;entryDy=0;" edge="1" parent="1" source="dxoBrdhW6s3K3j8bMvt5-34" target="dxoBrdhW6s3K3j8bMvt5-31">
          <mxGeometry relative="1" as="geometry" />
        </mxCell>
        <mxCell id="dxoBrdhW6s3K3j8bMvt5-42" value="&lt;div style=&quot;&quot;&gt;Data Hewan&lt;/div&gt;" style="edgeLabel;html=1;align=left;verticalAlign=middle;resizable=0;points=[];" vertex="1" connectable="0" parent="dxoBrdhW6s3K3j8bMvt5-41">
          <mxGeometry x="-0.2538" y="-4" relative="1" as="geometry">
            <mxPoint x="-29" as="offset" />
          </mxGeometry>
        </mxCell>
        <mxCell id="dxoBrdhW6s3K3j8bMvt5-81" style="edgeStyle=orthogonalEdgeStyle;rounded=0;orthogonalLoop=1;jettySize=auto;html=1;" edge="1" parent="1" source="dxoBrdhW6s3K3j8bMvt5-34" target="dxoBrdhW6s3K3j8bMvt5-32">
          <mxGeometry relative="1" as="geometry">
            <Array as="points">
              <mxPoint x="230" y="1410" />
              <mxPoint x="415" y="1410" />
            </Array>
          </mxGeometry>
        </mxCell>
        <mxCell id="dxoBrdhW6s3K3j8bMvt5-82" value="Data Adopsi" style="edgeLabel;html=1;align=left;verticalAlign=middle;resizable=0;points=[];" vertex="1" connectable="0" parent="dxoBrdhW6s3K3j8bMvt5-81">
          <mxGeometry x="0.1099" y="4" relative="1" as="geometry">
            <mxPoint x="-22" y="3" as="offset" />
          </mxGeometry>
        </mxCell>
        <mxCell id="dxoBrdhW6s3K3j8bMvt5-34" value="Admin" style="rounded=0;whiteSpace=wrap;html=1;" vertex="1" parent="1">
          <mxGeometry x="148" y="1268" width="120" height="60" as="geometry" />
        </mxCell>
        <mxCell id="dxoBrdhW6s3K3j8bMvt5-45" style="edgeStyle=orthogonalEdgeStyle;rounded=0;orthogonalLoop=1;jettySize=auto;html=1;entryX=0;entryY=0.5;entryDx=0;entryDy=0;" edge="1" parent="1" source="dxoBrdhW6s3K3j8bMvt5-35" target="dxoBrdhW6s3K3j8bMvt5-33">
          <mxGeometry relative="1" as="geometry">
            <Array as="points">
              <mxPoint x="208" y="1578" />
              <mxPoint x="322" y="1578" />
            </Array>
          </mxGeometry>
        </mxCell>
        <mxCell id="dxoBrdhW6s3K3j8bMvt5-46" value="Data Donasi" style="edgeLabel;html=1;align=left;verticalAlign=middle;resizable=0;points=[];" vertex="1" connectable="0" parent="dxoBrdhW6s3K3j8bMvt5-45">
          <mxGeometry x="0.2128" relative="1" as="geometry">
            <mxPoint x="-25" as="offset" />
          </mxGeometry>
        </mxCell>
        <mxCell id="dxoBrdhW6s3K3j8bMvt5-79" style="edgeStyle=orthogonalEdgeStyle;rounded=0;orthogonalLoop=1;jettySize=auto;html=1;" edge="1" parent="1" source="dxoBrdhW6s3K3j8bMvt5-35" target="dxoBrdhW6s3K3j8bMvt5-32">
          <mxGeometry relative="1" as="geometry">
            <Array as="points">
              <mxPoint x="230" y="1530" />
              <mxPoint x="413" y="1530" />
            </Array>
          </mxGeometry>
        </mxCell>
        <mxCell id="dxoBrdhW6s3K3j8bMvt5-80" value="Data Adopsi" style="edgeLabel;html=1;align=left;verticalAlign=middle;resizable=0;points=[];" vertex="1" connectable="0" parent="dxoBrdhW6s3K3j8bMvt5-79">
          <mxGeometry x="-0.304" relative="1" as="geometry">
            <mxPoint as="offset" />
          </mxGeometry>
        </mxCell>
        <mxCell id="dxoBrdhW6s3K3j8bMvt5-35" value="Pengguna" style="rounded=0;whiteSpace=wrap;html=1;" vertex="1" parent="1">
          <mxGeometry x="148" y="1450" width="120" height="60" as="geometry" />
        </mxCell>
        <mxCell id="dxoBrdhW6s3K3j8bMvt5-49" style="edgeStyle=orthogonalEdgeStyle;rounded=0;orthogonalLoop=1;jettySize=auto;html=1;entryX=1;entryY=1;entryDx=0;entryDy=0;" edge="1" parent="1" source="dxoBrdhW6s3K3j8bMvt5-36" target="dxoBrdhW6s3K3j8bMvt5-30">
          <mxGeometry relative="1" as="geometry">
            <Array as="points">
              <mxPoint x="460" y="1270" />
              <mxPoint x="460" y="1184" />
            </Array>
          </mxGeometry>
        </mxCell>
        <mxCell id="dxoBrdhW6s3K3j8bMvt5-50" value="Informasi Pengguna" style="edgeLabel;html=1;align=left;verticalAlign=middle;resizable=0;points=[];" vertex="1" connectable="0" parent="dxoBrdhW6s3K3j8bMvt5-49">
          <mxGeometry x="-0.4787" y="-3" relative="1" as="geometry">
            <mxPoint x="-51" as="offset" />
          </mxGeometry>
        </mxCell>
        <mxCell id="dxoBrdhW6s3K3j8bMvt5-36" value="Pengguna" style="html=1;dashed=0;whiteSpace=wrap;shape=partialRectangle;right=0;left=0;" vertex="1" parent="1">
          <mxGeometry x="570" y="1260" width="100" height="30" as="geometry" />
        </mxCell>
        <mxCell id="dxoBrdhW6s3K3j8bMvt5-54" style="edgeStyle=orthogonalEdgeStyle;rounded=0;orthogonalLoop=1;jettySize=auto;html=1;" edge="1" parent="1" source="dxoBrdhW6s3K3j8bMvt5-37" target="dxoBrdhW6s3K3j8bMvt5-31">
          <mxGeometry relative="1" as="geometry" />
        </mxCell>
        <mxCell id="dxoBrdhW6s3K3j8bMvt5-55" value="Informasi Hewan" style="edgeLabel;html=1;align=left;verticalAlign=middle;resizable=0;points=[];" vertex="1" connectable="0" parent="dxoBrdhW6s3K3j8bMvt5-54">
          <mxGeometry x="-0.0761" y="1" relative="1" as="geometry">
            <mxPoint x="-10" as="offset" />
          </mxGeometry>
        </mxCell>
        <mxCell id="dxoBrdhW6s3K3j8bMvt5-37" value="Hewan" style="html=1;dashed=0;whiteSpace=wrap;shape=partialRectangle;right=0;left=0;" vertex="1" parent="1">
          <mxGeometry x="570" y="1380" width="100" height="40" as="geometry" />
        </mxCell>
        <mxCell id="dxoBrdhW6s3K3j8bMvt5-69" style="edgeStyle=orthogonalEdgeStyle;rounded=0;orthogonalLoop=1;jettySize=auto;html=1;" edge="1" parent="1" source="dxoBrdhW6s3K3j8bMvt5-38" target="dxoBrdhW6s3K3j8bMvt5-32">
          <mxGeometry relative="1" as="geometry">
            <Array as="points">
              <mxPoint x="620" y="1510" />
              <mxPoint x="430" y="1510" />
            </Array>
          </mxGeometry>
        </mxCell>
        <mxCell id="dxoBrdhW6s3K3j8bMvt5-70" value="Informasi Adopsi" style="edgeLabel;html=1;align=left;verticalAlign=middle;resizable=0;points=[];" vertex="1" connectable="0" parent="dxoBrdhW6s3K3j8bMvt5-69">
          <mxGeometry x="0.1544" relative="1" as="geometry">
            <mxPoint x="-21" as="offset" />
          </mxGeometry>
        </mxCell>
        <mxCell id="dxoBrdhW6s3K3j8bMvt5-38" value="Adopsi" style="html=1;dashed=0;whiteSpace=wrap;shape=partialRectangle;right=0;left=0;" vertex="1" parent="1">
          <mxGeometry x="570" y="1470" width="100" height="30" as="geometry" />
        </mxCell>
        <mxCell id="dxoBrdhW6s3K3j8bMvt5-43" style="edgeStyle=orthogonalEdgeStyle;rounded=0;orthogonalLoop=1;jettySize=auto;html=1;" edge="1" parent="1" target="dxoBrdhW6s3K3j8bMvt5-30">
          <mxGeometry relative="1" as="geometry">
            <mxPoint x="148" y="1479" as="sourcePoint" />
            <mxPoint x="412.5" y="1119" as="targetPoint" />
            <Array as="points">
              <mxPoint x="120" y="1479" />
              <mxPoint x="120" y="1130" />
            </Array>
          </mxGeometry>
        </mxCell>
        <mxCell id="dxoBrdhW6s3K3j8bMvt5-44" value="Data Pengguna" style="edgeLabel;html=1;align=left;verticalAlign=middle;resizable=0;points=[];" vertex="1" connectable="0" parent="dxoBrdhW6s3K3j8bMvt5-43">
          <mxGeometry x="0.6385" y="-1" relative="1" as="geometry">
            <mxPoint x="-2" y="1" as="offset" />
          </mxGeometry>
        </mxCell>
        <mxCell id="dxoBrdhW6s3K3j8bMvt5-65" style="edgeStyle=orthogonalEdgeStyle;rounded=0;orthogonalLoop=1;jettySize=auto;html=1;entryX=0.5;entryY=1;entryDx=0;entryDy=0;" edge="1" parent="1" source="dxoBrdhW6s3K3j8bMvt5-61" target="dxoBrdhW6s3K3j8bMvt5-33">
          <mxGeometry relative="1" as="geometry">
            <Array as="points">
              <mxPoint x="620" y="1635" />
              <mxPoint x="412" y="1635" />
            </Array>
          </mxGeometry>
        </mxCell>
        <mxCell id="dxoBrdhW6s3K3j8bMvt5-66" value="Informasi Donasi" style="edgeLabel;html=1;align=left;verticalAlign=middle;resizable=0;points=[];" vertex="1" connectable="0" parent="dxoBrdhW6s3K3j8bMvt5-65">
          <mxGeometry x="0.1269" relative="1" as="geometry">
            <mxPoint x="-29" as="offset" />
          </mxGeometry>
        </mxCell>
        <mxCell id="dxoBrdhW6s3K3j8bMvt5-61" value="Donasi" style="html=1;dashed=0;whiteSpace=wrap;shape=partialRectangle;right=0;left=0;" vertex="1" parent="1">
          <mxGeometry x="570" y="1563" width="100" height="30" as="geometry" />
        </mxCell>
        <mxCell id="dxoBrdhW6s3K3j8bMvt5-75" style="edgeStyle=orthogonalEdgeStyle;rounded=0;orthogonalLoop=1;jettySize=auto;html=1;entryX=0.75;entryY=0;entryDx=0;entryDy=0;jumpStyle=arc;" edge="1" parent="1" source="dxoBrdhW6s3K3j8bMvt5-31" target="dxoBrdhW6s3K3j8bMvt5-35">
          <mxGeometry relative="1" as="geometry">
            <Array as="points">
              <mxPoint x="390" y="1360" />
              <mxPoint x="238" y="1360" />
            </Array>
          </mxGeometry>
        </mxCell>
        <mxCell id="dxoBrdhW6s3K3j8bMvt5-76" value="Informasi Hewan" style="edgeLabel;html=1;align=left;verticalAlign=middle;resizable=0;points=[];" vertex="1" connectable="0" parent="dxoBrdhW6s3K3j8bMvt5-75">
          <mxGeometry x="-0.0638" y="2" relative="1" as="geometry">
            <mxPoint x="-17" as="offset" />
          </mxGeometry>
        </mxCell>
        <mxCell id="dxoBrdhW6s3K3j8bMvt5-83" style="edgeStyle=orthogonalEdgeStyle;rounded=0;orthogonalLoop=1;jettySize=auto;html=1;entryX=0;entryY=0.5;entryDx=0;entryDy=0;jumpStyle=arc;" edge="1" parent="1" target="dxoBrdhW6s3K3j8bMvt5-34">
          <mxGeometry relative="1" as="geometry">
            <mxPoint x="393" y="1610" as="sourcePoint" />
            <mxPoint x="188" y="1520" as="targetPoint" />
            <Array as="points">
              <mxPoint x="90" y="1610" />
              <mxPoint x="90" y="1298" />
            </Array>
          </mxGeometry>
        </mxCell>
        <mxCell id="dxoBrdhW6s3K3j8bMvt5-84" value="Informasi Donasi" style="edgeLabel;html=1;align=left;verticalAlign=middle;resizable=0;points=[];" vertex="1" connectable="0" parent="dxoBrdhW6s3K3j8bMvt5-83">
          <mxGeometry x="-0.1602" y="1" relative="1" as="geometry">
            <mxPoint as="offset" />
          </mxGeometry>
        </mxCell>
      </root>
    </mxGraphModel>
  </diagram>
</mxfile>
